{"title":"Colombiana (2011) Cropped HDRip-XviD-HORRORSPOKE","uid":6728526,"size":1101223202,"categoryP":"video","categoryS":"movies","magnet":"?xt=urn:btih:84336ddf1bdd7f08971eb2db1924c876347a54d6&amp;dn=Colombiana+%282011%29+Cropped+HDRip-XviD-HORRORSPOKE&amp;tr=udp%3A%2F%2Ftracker.openbittorrent.com%3A80&amp;tr=udp%3A%2F%2Fopen.demonii.com%3A1337&amp;tr=udp%3A%2F%2Ftracker.coppersurfer.tk%3A6969&amp;tr=udp%3A%2F%2Fexodus.desync.com%3A6969","seeders":0,"leechers":0,"uploader":"Horrorspoke","files":-1,"time":1318029511,"description":"SOURCE: Colombiana.2011.KORSUB.720p.HDRip.x264.AC3-ZERO (thank you)\n\nOkay, this one is cropped where the subtitles were, obviously that means some of the bottom section of video is missing. It's a take it or leave it release really. Also, it has been converted to XviD format for those who prefer it. I know some prefer it left as it is - others prefer cropping....\n\nI did originally convert to 700mb with Aimersoft Ultimate, but it was too pixelated, so I tried a different programme, and got this rip, which is far better.\n\n\nPLOT:\n\nA young woman grows up to be a stone-cold assassin after witnessing her parents' murder as a child in Bogota.She works for her uncle as a hitman by day, but her personal time is spent engaging in vigilante murders that she hopes will lead her to her ultimate target - the mobster responsible for her parents' death.\n\nFILE INFO:\n\nFile size                        : 1.03 GiB\nDuration                         : 1h 47mn\nOverall bit rate                 : 1 362 Kbps\nMovie name                       : Avidemux\nWriting application              : Lavf52.78.3\nWriting library                  : Lavf52.78.3\n\nVideo\nID                               : 1\nFormat                           : MPEG-4 Visual\nFormat profile                   : Advanced Simple@L5\nFormat settings, BVOP            : Yes\nFormat settings, QPel            : No\nFormat settings, GMC             : No warppoints\nFormat settings, Matrix          : Default (H.263)\nCodec ID                         : V_MPEG4/ISO/ASP\nCodec ID/Info                    : Advanced Simple Profile\nDuration                         : 1h 47mn\nBit rate                         : 1 143 Kbps\nWidth                            : 1 280 pixels\nHeight                           : 456 pixels\nDisplay aspect ratio             : 2.807\nFrame rate                       : 29.970 fps\nColor space                      : YUV\nChroma subsampling               : 4:2:0\nBit depth                        : 8 bits\nScan type                        : Progressive\nCompression mode                 : Lossy\nBits/(Pixel*Frame)               : 0.065\nStream size                      : 881 MiB (84%)\nWriting library                  : XviD 1.2.1 (UTC 2008-12-04)\nLanguage                         : English\n\nAudio\nID                               : 2\nFormat                           : AC-3\nFormat/Info                      : Audio Coding 3\nMode extension                   : CM (complete main)\nCodec ID                         : A_AC3\nDuration                         : 1h 47mn\nBit rate mode                    : Constant\nBit rate                         : 192 Kbps\nChannel(s)                       : 2 channels\nChannel positions                : Front: L R\nSampling rate                    : 48.0 KHz\nBit depth                        : 16 bits\nCompression mode                 : Lossy\nDelay relative to video          : -33ms\nStream size                      : 148 MiB (14%)\nLanguage                         : English\n\nSCREENS:\n &lt;a href=&quot;\nhttp://imghunt.org/images/87654873016294937775.png&quot; rel=&quot;nofollow&quot; target=&quot;_NEW&quot;&gt;\nhttp://imghunt.org/images/87654873016294937775.png&lt;/a&gt; &lt;a href=&quot;\nhttp://imghunt.org/images/71533800948950423921.png&quot; rel=&quot;nofollow&quot; target=&quot;_NEW&quot;&gt;\nhttp://imghunt.org/images/71533800948950423921.png&lt;/a&gt; &lt;a href=&quot;\nhttp://imghunt.org/images/00003012748376760242.png&quot; rel=&quot;nofollow&quot; target=&quot;_NEW&quot;&gt;\nhttp://imghunt.org/images/00003012748376760242.png&lt;/a&gt; &lt;a href=&quot;\nhttp://imghunt.org/images/55597406455178931455.png&quot; rel=&quot;nofollow&quot; target=&quot;_NEW&quot;&gt;\nhttp://imghunt.org/images/55597406455178931455.png&lt;/a&gt;\n\nPLEASE BE PATIENT WHEN DOWNLOADING, MY UPLOAD SPEED IS CAPPED AT AROUND 120KB/s, SO IT MAY TAKE A WHILE. REST ASSURED, I NEVER STOP SEEDING UNTIL EVERYONE HAS DOWNLOADED.\n\nTHANKS!!!\n","torrent":{"xt":"urn:btih:84336ddf1bdd7f08971eb2db1924c876347a54d6","amp;dn":"Colombiana+%282011%29+Cropped+HDRip-XviD-HORRORSPOKE","amp;tr":["udp%3A%2F%2Ftracker.openbittorrent.com%3A80","udp%3A%2F%2Fopen.demonii.com%3A1337","udp%3A%2F%2Ftracker.coppersurfer.tk%3A6969","udp%3A%2F%2Fexodus.desync.com%3A6969"],"infoHash":"84336ddf1bdd7f08971eb2db1924c876347a54d6","infoHashBuffer":{"type":"Buffer","data":[132,51,109,223,27,221,127,8,151,30,178,219,25,36,200,118,52,122,84,214]},"announce":[],"urlList":[]}}